# xmcd
#
# Track frame offsets: 
#        150
#        17238
#        34908
#        50478
#        67321
#        82842
#        101854
#        117306
#        133454
#        150168
#        167559
#        184479
#        206174
#        221925
#        242810
#        258926
#        277909
#        295087
#        311222
#        326984
#
# Disc length: 4689 seconds
#
# Revision: 0
# Processed by: cddbd v1.5.2PL0 Copyright (c) Steve Scherf et al.
# Submitted via: ExactAudioCopy v1.1
#
DISCID=3d124f14
DTITLE=Various Artist - MNM Back To The 90s and Nillies - Party Edition 2018 - 
DTITLE=CD 1 - Back To The 90's
DYEAR=2018
DGENRE=Pop
TTITLE0=Scooter - How Much Is The Fish?
TTITLE1=3 Doors Down - Kryptonite
TTITLE2=Leila K - Open Sesame
TTITLE3=Vengaboys - We Like To Party! (The Vengabus)
TTITLE4=Guus Meeuwis En Vagant - Het Is Een Nacht... (Levensecht)
TTITLE5=Ice MC - It's A Rainy Day
TTITLE6=De Kreuners - Ik Wil Je
TTITLE7=Fiocco - Afflitto
TTITLE8=Snap! - Rhythm Is A Dancer
TTITLE9=Ultimate Kaos - Casanova
TTITLE10=2 Unlimited - No Limit
TTITLE11=K's Choice - Not An Addict
TTITLE12=Zombie Nation - Kernkraft 400
TTITLE13=The Scene - Blauw
TTITLE14=2 Fabiola - Freak Out
TTITLE15=Skee - Lo - I Wish
TTITLE16=Madison Avenue - Don't Call Me Baby
TTITLE17=Backstreet Boys - I Want It That Way
TTITLE18=X - Session - On And On
TTITLE19=Gorki - Mia
EXTD=
EXTT0=
EXTT1=
EXTT2=
EXTT3=
EXTT4=
EXTT5=
EXTT6=
EXTT7=
EXTT8=
EXTT9=
EXTT10=
EXTT11=
EXTT12=
EXTT13=
EXTT14=
EXTT15=
EXTT16=
EXTT17=
EXTT18=
EXTT19=
PLAYORDER=
